<?xml version="1.0" encoding="utf-8"?>
<!-- Generator: Adobe Illustrator 23.0.0, SVG Export Plug-In . SVG Version: 6.00 Build 0)  -->
<svg version="1.1" id="Layer_1" xmlns="http://www.w3.org/2000/svg" xmlns:xlink="http://www.w3.org/1999/xlink" x="0px" y="0px"
	 viewBox="0 0 160 42.2" style="enable-background:new 0 0 160 42.2;" xml:space="preserve">
<style type="text/css">
	.st0{fill:#ED2B78;}
	.st1{fill:#00EBFF;}
	.st2{fill:#FFFFFF;}
</style>
<path id="Pink" class="st0" d="M15.6,8.3c-1.1,1.2-2.6,2-4.2,2.3c-1.7,0.3-4.3-1-5.8-1.2C2.8,9,0.4,10.9,0,13.5c0,0,0,0,0,0l0,0
	c-0.4,2.7,1.5,5.1,4.2,5.5c0,0,0,0,0,0c0.9,0.1,3.7-0.6,5.7-0.1s3.8,0.9,4.8,2.7c0.7,1.1,0.9,2.5,0.6,3.8l0,0
	c-0.4,2.7,1.5,5.1,4.1,5.5s5.1-1.5,5.5-4.1C25.2,24,20.1,23,18,20s-1.1-6.2,1.1-8.3s7.4-3.5,7.7-6.2c0.4-2.7-1.5-5.1-4.1-5.5
	s-5.1,1.5-5.5,4.1l0,0C17.1,5.7,16.5,7.1,15.6,8.3z"/>
<path id="Blue" class="st1" d="M31.9,36c1.3-0.8,2.9-1.2,4.5-1c1.6,0.1,3.7,2,5.1,2.6c2.4,1,5.1-0.1,6.1-2.5c0,0,0,0,0,0l0,0
	c1-2.3-0.1-5.1-2.4-6.1c0,0,0,0,0,0c-0.8-0.3-3.6-0.4-5.3-1.3s-3.2-1.8-3.7-3.7c-0.4-1.2-0.2-2.6,0.4-3.7l0,0
	c1.2-2.3,0.3-5.1-1.9-6.3s-5.1-0.3-6.3,1.9c-0.1,0.2-0.2,0.5-0.3,0.7c-1,2.4,3.5,4.6,4.7,8c1.2,3.4-0.5,6-3.1,7.4s-7.7,1.4-8.7,3.7
	c-0.9,2.4,0.3,5.1,2.6,6c2.3,0.9,4.9-0.2,5.9-2.4l0,0C29.9,38.1,30.8,36.9,31.9,36z"/>
<path id="S" class="st2" d="M67.4,30.8c-2.6,0.1-5.1-1-6.8-2.9l3.1-2.8c1.2,1.4,2.9,2.2,4.8,2.2c1.6,0,2.8-0.6,3.1-1.7v0
	c0.3-1-0.2-1.5-3-2.3c-3.4-0.9-5.4-1.9-4.4-5.5v0c1.1-3.4,4.3-5.6,7.9-5.4c2.2-0.1,4.4,0.7,6,2.3l-2.9,3c-1.1-1.1-2.6-1.7-4.2-1.8
	c-1.5,0-2.5,0.7-2.8,1.6v0c-0.3,1.2,0.3,1.6,3.2,2.4c3.4,1,5.1,2.3,4.2,5.4l0,0C74.6,28.8,71.3,30.8,67.4,30.8z"/>
<path id="p" class="st2" d="M88,16.5c-1.9,0-3.7,0.9-4.9,2.3l0.5-2h-3.9l-5,17.9h3.9l1.6-5.9c0.7,1.4,2.2,2.2,3.7,2h0
	c3.3,0,7-2.5,8.3-7.1v-0.1C93.6,19,91.2,16.5,88,16.5z M88.3,23.6L88.3,23.6c-0.5,2.2-2.3,3.7-4.4,3.9c-1.8,0-2.9-1.5-2.3-3.8v-0.1
	c0.5-2.1,2.3-3.6,4.4-3.8C87.9,19.8,89,21.3,88.3,23.6z"/>
<path id="r" class="st2" d="M102.8,20.6c-2.6,0-4.6,1.6-5.5,4.9l-1.4,5.1h-3.9l3.8-13.8h3.9l-0.8,2.8c1.3-1.9,2.9-3.1,5.2-3l-1.1,4
	L102.8,20.6z"/>
<path id="a" class="st2" d="M110.3,16.7c-1.9,0-3.9,0.4-5.7,1.1l0.1,3c1.3-0.5,2.6-0.7,4-0.8c2,0,2.7,0.9,2.3,2.5l-0.1,0.2
	c-1-0.4-2.1-0.6-3.2-0.6c-3.3,0-5.9,1.4-6.8,4.4c-0.8,2.7,1,4.2,3.6,4.2c1.7,0,3.4-0.6,4.6-1.8l-0.4,1.5l3.8,0l2.2-8
	C115.8,18.9,114.5,16.7,110.3,16.7z M110.2,25.7c-0.6,1.5-2.1,2.5-3.7,2.4c-1.3,0-2-0.6-1.7-1.7v0c0.3-1.2,1.5-1.9,3.2-1.9
	c0.8,0,1.6,0.2,2.4,0.5L110.2,25.7z"/>
<path id="d" class="st2" d="M129.8,11.7l-1.9,6.8c-0.7-1.3-2.2-2.1-3.7-2c-3.3,0-7,2.5-8.3,7.1v0.1c-1.3,4.6,1.1,7.1,4.3,7.1
	c1.9,0,3.6-0.8,4.9-2.2l-0.5,2l3.9-0.1l5.2-18.8H129.8z M126.6,23.7c-0.5,2.1-2.3,3.6-4.4,3.8c-1.8,0-3-1.5-2.3-3.8v-0.1
	c0.5-2.1,2.3-3.6,4.4-3.8C126.1,19.8,127.2,21.4,126.6,23.7L126.6,23.7z"/>
<polygon id="z" class="st2" points="130.3,30.5 131.1,27.8 140.4,19.9 133.5,19.9 134.3,16.8 146,16.8 145.2,19.5 136,27.4 
	143.1,27.4 142.3,30.5 "/>
<g id="_x21_">
	<polygon class="st2" points="150.7,30.6 154.9,30.6 156,26.4 151.8,26.4 	"/>
	<polygon class="st2" points="155.4,12.6 155.3,13.1 153.3,24.4 155.5,24.4 159.9,13.1 160,12.6 	"/>
</g>
<path id="_x2E__1_" class="st2" d="M34,8.1c0,1.9,1.6,3.5,3.5,3.5c1.9,0,3.5-1.6,3.5-3.5s-1.6-3.5-3.5-3.5c0,0,0,0,0,0
	C35.6,4.6,34,6.2,34,8.1C34,8.1,34,8.1,34,8.1z"/>
<path id="_x2E_" class="st2" d="M4.8,36.6c0,2.6,2.1,4.8,4.8,4.8c2.6,0,4.8-2.1,4.8-4.8c0-2.6-2.1-4.8-4.8-4.8
	C6.9,31.8,4.8,33.9,4.8,36.6C4.8,36.6,4.8,36.6,4.8,36.6z"/>
</svg>
